<mxfile host="Electron" modified="2024-04-11T12:52:50.520Z" agent="Mozilla/5.0 (Windows NT 10.0; Win64; x64) AppleWebKit/537.36 (KHTML, like Gecko) draw.io/23.1.5 Chrome/120.0.6099.109 Electron/28.1.0 Safari/537.36" etag="cf4U5Cnh13fBcvwuw2-H" version="23.1.5" type="device">
  <diagram name="Page-1" id="Q6kQowPJ_sDF4QVhWaRp">
    <mxGraphModel dx="1034" dy="511" grid="1" gridSize="10" guides="1" tooltips="1" connect="1" arrows="1" fold="1" page="1" pageScale="1" pageWidth="850" pageHeight="1100" math="0" shadow="0">
      <root>
        <mxCell id="0" />
        <mxCell id="1" parent="0" />
        <mxCell id="gfHthL5SHgIZj502cb-F-1" value="Report" style="whiteSpace=wrap;html=1;align=center;" parent="1" vertex="1">
          <mxGeometry x="261" y="110" width="100" height="40" as="geometry" />
        </mxCell>
        <mxCell id="gfHthL5SHgIZj502cb-F-2" value="User_id" style="ellipse;whiteSpace=wrap;html=1;align=center;" parent="1" vertex="1">
          <mxGeometry x="261" y="50" width="100" height="40" as="geometry" />
        </mxCell>
        <mxCell id="gfHthL5SHgIZj502cb-F-8" value="" style="endArrow=none;html=1;rounded=0;exitX=0.5;exitY=1;exitDx=0;exitDy=0;" parent="1" source="gfHthL5SHgIZj502cb-F-2" target="gfHthL5SHgIZj502cb-F-1" edge="1">
          <mxGeometry relative="1" as="geometry">
            <mxPoint x="431" y="170" as="sourcePoint" />
            <mxPoint x="591" y="170" as="targetPoint" />
          </mxGeometry>
        </mxCell>
        <mxCell id="gfHthL5SHgIZj502cb-F-9" value="Reg_no" style="ellipse;whiteSpace=wrap;html=1;align=center;fontStyle=4;" parent="1" vertex="1">
          <mxGeometry x="151" y="60" width="100" height="40" as="geometry" />
        </mxCell>
        <mxCell id="gfHthL5SHgIZj502cb-F-14" value="" style="endArrow=none;html=1;rounded=0;exitX=1;exitY=1;exitDx=0;exitDy=0;" parent="1" source="gfHthL5SHgIZj502cb-F-9" target="gfHthL5SHgIZj502cb-F-1" edge="1">
          <mxGeometry relative="1" as="geometry">
            <mxPoint x="231" y="99.5" as="sourcePoint" />
            <mxPoint x="391" y="99.5" as="targetPoint" />
          </mxGeometry>
        </mxCell>
        <mxCell id="gfHthL5SHgIZj502cb-F-15" value="Book_no" style="ellipse;whiteSpace=wrap;html=1;align=center;" parent="1" vertex="1">
          <mxGeometry x="121" y="110" width="100" height="40" as="geometry" />
        </mxCell>
        <mxCell id="gfHthL5SHgIZj502cb-F-16" value="" style="endArrow=none;html=1;rounded=0;" parent="1" edge="1">
          <mxGeometry relative="1" as="geometry">
            <mxPoint x="221" y="130" as="sourcePoint" />
            <mxPoint x="261" y="130" as="targetPoint" />
          </mxGeometry>
        </mxCell>
        <mxCell id="gfHthL5SHgIZj502cb-F-19" value="Issue/Return" style="ellipse;whiteSpace=wrap;html=1;align=center;" parent="1" vertex="1">
          <mxGeometry x="151" y="160" width="100" height="40" as="geometry" />
        </mxCell>
        <mxCell id="gfHthL5SHgIZj502cb-F-21" value="" style="endArrow=none;html=1;rounded=0;exitX=0;exitY=1;exitDx=0;exitDy=0;" parent="1" source="gfHthL5SHgIZj502cb-F-1" target="gfHthL5SHgIZj502cb-F-19" edge="1">
          <mxGeometry relative="1" as="geometry">
            <mxPoint x="431" y="70" as="sourcePoint" />
            <mxPoint x="591" y="70" as="targetPoint" />
          </mxGeometry>
        </mxCell>
        <mxCell id="gfHthL5SHgIZj502cb-F-22" value="Manages" style="shape=rhombus;perimeter=rhombusPerimeter;whiteSpace=wrap;html=1;align=center;" parent="1" vertex="1">
          <mxGeometry x="251" y="210" width="120" height="60" as="geometry" />
        </mxCell>
        <mxCell id="gfHthL5SHgIZj502cb-F-27" value="" style="endArrow=none;html=1;rounded=0;exitX=0.5;exitY=0;exitDx=0;exitDy=0;entryX=0.5;entryY=1;entryDx=0;entryDy=0;" parent="1" source="gfHthL5SHgIZj502cb-F-22" target="gfHthL5SHgIZj502cb-F-1" edge="1">
          <mxGeometry relative="1" as="geometry">
            <mxPoint x="431" y="70" as="sourcePoint" />
            <mxPoint x="321" y="170" as="targetPoint" />
          </mxGeometry>
        </mxCell>
        <mxCell id="gfHthL5SHgIZj502cb-F-28" value="N" style="resizable=0;html=1;whiteSpace=wrap;align=right;verticalAlign=bottom;" parent="gfHthL5SHgIZj502cb-F-27" connectable="0" vertex="1">
          <mxGeometry x="1" relative="1" as="geometry">
            <mxPoint x="19" y="41" as="offset" />
          </mxGeometry>
        </mxCell>
        <mxCell id="gfHthL5SHgIZj502cb-F-29" value="Staff" style="whiteSpace=wrap;html=1;align=center;" parent="1" vertex="1">
          <mxGeometry x="261" y="320" width="100" height="40" as="geometry" />
        </mxCell>
        <mxCell id="gfHthL5SHgIZj502cb-F-30" value="" style="endArrow=none;html=1;rounded=0;exitX=0.5;exitY=1;exitDx=0;exitDy=0;entryX=0.5;entryY=0;entryDx=0;entryDy=0;" parent="1" source="gfHthL5SHgIZj502cb-F-22" target="gfHthL5SHgIZj502cb-F-29" edge="1">
          <mxGeometry relative="1" as="geometry">
            <mxPoint x="431" y="170" as="sourcePoint" />
            <mxPoint x="591" y="170" as="targetPoint" />
          </mxGeometry>
        </mxCell>
        <mxCell id="gfHthL5SHgIZj502cb-F-31" value="1" style="resizable=0;html=1;whiteSpace=wrap;align=right;verticalAlign=bottom;" parent="gfHthL5SHgIZj502cb-F-30" connectable="0" vertex="1">
          <mxGeometry x="1" relative="1" as="geometry">
            <mxPoint x="18" y="-15" as="offset" />
          </mxGeometry>
        </mxCell>
        <mxCell id="gfHthL5SHgIZj502cb-F-32" value="Name" style="ellipse;whiteSpace=wrap;html=1;align=center;" parent="1" vertex="1">
          <mxGeometry x="131" y="280" width="100" height="40" as="geometry" />
        </mxCell>
        <mxCell id="gfHthL5SHgIZj502cb-F-33" value="" style="endArrow=none;html=1;rounded=0;exitX=1;exitY=1;exitDx=0;exitDy=0;" parent="1" source="gfHthL5SHgIZj502cb-F-32" target="gfHthL5SHgIZj502cb-F-29" edge="1">
          <mxGeometry relative="1" as="geometry">
            <mxPoint x="431" y="170" as="sourcePoint" />
            <mxPoint x="591" y="170" as="targetPoint" />
          </mxGeometry>
        </mxCell>
        <mxCell id="gfHthL5SHgIZj502cb-F-34" value="Staff_id" style="ellipse;whiteSpace=wrap;html=1;align=center;fontStyle=4;" parent="1" vertex="1">
          <mxGeometry x="121" y="330" width="100" height="40" as="geometry" />
        </mxCell>
        <mxCell id="gfHthL5SHgIZj502cb-F-35" value="" style="endArrow=none;html=1;rounded=0;exitX=1;exitY=0.5;exitDx=0;exitDy=0;entryX=0;entryY=0.5;entryDx=0;entryDy=0;" parent="1" source="gfHthL5SHgIZj502cb-F-34" target="gfHthL5SHgIZj502cb-F-29" edge="1">
          <mxGeometry relative="1" as="geometry">
            <mxPoint x="431" y="170" as="sourcePoint" />
            <mxPoint x="591" y="170" as="targetPoint" />
          </mxGeometry>
        </mxCell>
        <mxCell id="gfHthL5SHgIZj502cb-F-36" value="Keeps track of" style="shape=rhombus;perimeter=rhombusPerimeter;whiteSpace=wrap;html=1;align=center;" parent="1" vertex="1">
          <mxGeometry x="251" y="430" width="120" height="60" as="geometry" />
        </mxCell>
        <mxCell id="gfHthL5SHgIZj502cb-F-37" value="" style="endArrow=none;html=1;rounded=0;exitX=0.5;exitY=1;exitDx=0;exitDy=0;entryX=0.5;entryY=0;entryDx=0;entryDy=0;" parent="1" source="gfHthL5SHgIZj502cb-F-29" target="gfHthL5SHgIZj502cb-F-36" edge="1">
          <mxGeometry relative="1" as="geometry">
            <mxPoint x="431" y="370" as="sourcePoint" />
            <mxPoint x="591" y="370" as="targetPoint" />
          </mxGeometry>
        </mxCell>
        <mxCell id="gfHthL5SHgIZj502cb-F-38" value="M" style="edgeLabel;html=1;align=center;verticalAlign=middle;resizable=0;points=[];" parent="gfHthL5SHgIZj502cb-F-37" vertex="1" connectable="0">
          <mxGeometry x="0.1048" y="8" relative="1" as="geometry">
            <mxPoint x="2" as="offset" />
          </mxGeometry>
        </mxCell>
        <mxCell id="gfHthL5SHgIZj502cb-F-39" value="" style="endArrow=none;html=1;rounded=0;exitX=0.5;exitY=1;exitDx=0;exitDy=0;" parent="1" source="gfHthL5SHgIZj502cb-F-36" edge="1">
          <mxGeometry relative="1" as="geometry">
            <mxPoint x="431" y="370" as="sourcePoint" />
            <mxPoint x="311" y="560" as="targetPoint" />
          </mxGeometry>
        </mxCell>
        <mxCell id="gfHthL5SHgIZj502cb-F-40" value="N" style="edgeLabel;html=1;align=center;verticalAlign=middle;resizable=0;points=[];" parent="gfHthL5SHgIZj502cb-F-39" vertex="1" connectable="0">
          <mxGeometry x="0.1048" y="-1" relative="1" as="geometry">
            <mxPoint x="9" as="offset" />
          </mxGeometry>
        </mxCell>
        <mxCell id="gfHthL5SHgIZj502cb-F-41" value="Readers" style="whiteSpace=wrap;html=1;align=center;" parent="1" vertex="1">
          <mxGeometry x="261" y="560" width="100" height="40" as="geometry" />
        </mxCell>
        <mxCell id="gfHthL5SHgIZj502cb-F-43" value="User_ID" style="ellipse;whiteSpace=wrap;html=1;align=center;fontStyle=4;" parent="1" vertex="1">
          <mxGeometry x="191" y="490" width="100" height="40" as="geometry" />
        </mxCell>
        <mxCell id="gfHthL5SHgIZj502cb-F-44" value="Email" style="ellipse;whiteSpace=wrap;html=1;align=center;" parent="1" vertex="1">
          <mxGeometry x="85" y="480" width="100" height="40" as="geometry" />
        </mxCell>
        <mxCell id="gfHthL5SHgIZj502cb-F-45" value="Name" style="ellipse;whiteSpace=wrap;html=1;align=center;" parent="1" vertex="1">
          <mxGeometry x="131" y="559" width="100" height="40" as="geometry" />
        </mxCell>
        <mxCell id="gfHthL5SHgIZj502cb-F-46" value="Firstname" style="ellipse;whiteSpace=wrap;html=1;align=center;" parent="1" vertex="1">
          <mxGeometry x="31" y="527" width="100" height="40" as="geometry" />
        </mxCell>
        <mxCell id="gfHthL5SHgIZj502cb-F-47" value="Lastname" style="ellipse;whiteSpace=wrap;html=1;align=center;" parent="1" vertex="1">
          <mxGeometry x="29" y="593" width="100" height="40" as="geometry" />
        </mxCell>
        <mxCell id="gfHthL5SHgIZj502cb-F-49" value="Phone_no" style="ellipse;shape=doubleEllipse;margin=3;whiteSpace=wrap;html=1;align=center;" parent="1" vertex="1">
          <mxGeometry x="95" y="640" width="100" height="40" as="geometry" />
        </mxCell>
        <mxCell id="gfHthL5SHgIZj502cb-F-50" value="Address" style="ellipse;whiteSpace=wrap;html=1;align=center;" parent="1" vertex="1">
          <mxGeometry x="215" y="650" width="100" height="40" as="geometry" />
        </mxCell>
        <mxCell id="gfHthL5SHgIZj502cb-F-51" value="" style="endArrow=none;html=1;rounded=0;exitX=1;exitY=1;exitDx=0;exitDy=0;entryX=0.25;entryY=0;entryDx=0;entryDy=0;" parent="1" source="gfHthL5SHgIZj502cb-F-43" target="gfHthL5SHgIZj502cb-F-41" edge="1">
          <mxGeometry relative="1" as="geometry">
            <mxPoint x="325" y="470" as="sourcePoint" />
            <mxPoint x="485" y="470" as="targetPoint" />
          </mxGeometry>
        </mxCell>
        <mxCell id="gfHthL5SHgIZj502cb-F-52" value="" style="endArrow=none;html=1;rounded=0;exitX=1;exitY=1;exitDx=0;exitDy=0;entryX=0;entryY=0.25;entryDx=0;entryDy=0;" parent="1" source="gfHthL5SHgIZj502cb-F-44" target="gfHthL5SHgIZj502cb-F-41" edge="1">
          <mxGeometry relative="1" as="geometry">
            <mxPoint x="325" y="470" as="sourcePoint" />
            <mxPoint x="485" y="470" as="targetPoint" />
          </mxGeometry>
        </mxCell>
        <mxCell id="gfHthL5SHgIZj502cb-F-53" value="" style="endArrow=none;html=1;rounded=0;entryX=0;entryY=0.5;entryDx=0;entryDy=0;exitX=1;exitY=0.5;exitDx=0;exitDy=0;" parent="1" source="gfHthL5SHgIZj502cb-F-45" target="gfHthL5SHgIZj502cb-F-41" edge="1">
          <mxGeometry relative="1" as="geometry">
            <mxPoint x="231" y="584.5" as="sourcePoint" />
            <mxPoint x="255" y="585" as="targetPoint" />
          </mxGeometry>
        </mxCell>
        <mxCell id="gfHthL5SHgIZj502cb-F-54" value="" style="endArrow=none;html=1;rounded=0;exitX=1;exitY=1;exitDx=0;exitDy=0;" parent="1" source="gfHthL5SHgIZj502cb-F-46" target="gfHthL5SHgIZj502cb-F-45" edge="1">
          <mxGeometry relative="1" as="geometry">
            <mxPoint x="145" y="559" as="sourcePoint" />
            <mxPoint x="305" y="559" as="targetPoint" />
          </mxGeometry>
        </mxCell>
        <mxCell id="gfHthL5SHgIZj502cb-F-55" value="" style="endArrow=none;html=1;rounded=0;entryX=0;entryY=1;entryDx=0;entryDy=0;exitX=1;exitY=0;exitDx=0;exitDy=0;" parent="1" source="gfHthL5SHgIZj502cb-F-47" target="gfHthL5SHgIZj502cb-F-45" edge="1">
          <mxGeometry relative="1" as="geometry">
            <mxPoint x="125" y="609" as="sourcePoint" />
            <mxPoint x="145" y="589" as="targetPoint" />
          </mxGeometry>
        </mxCell>
        <mxCell id="gfHthL5SHgIZj502cb-F-56" value="" style="endArrow=none;html=1;rounded=0;exitX=0.5;exitY=0;exitDx=0;exitDy=0;entryX=0;entryY=0.75;entryDx=0;entryDy=0;" parent="1" source="gfHthL5SHgIZj502cb-F-49" target="gfHthL5SHgIZj502cb-F-41" edge="1">
          <mxGeometry relative="1" as="geometry">
            <mxPoint x="325" y="470" as="sourcePoint" />
            <mxPoint x="485" y="470" as="targetPoint" />
          </mxGeometry>
        </mxCell>
        <mxCell id="gfHthL5SHgIZj502cb-F-57" value="" style="endArrow=none;html=1;rounded=0;entryX=0.5;entryY=0;entryDx=0;entryDy=0;exitX=0.25;exitY=1;exitDx=0;exitDy=0;" parent="1" source="gfHthL5SHgIZj502cb-F-41" target="gfHthL5SHgIZj502cb-F-50" edge="1">
          <mxGeometry relative="1" as="geometry">
            <mxPoint x="325" y="470" as="sourcePoint" />
            <mxPoint x="485" y="470" as="targetPoint" />
          </mxGeometry>
        </mxCell>
        <mxCell id="gfHthL5SHgIZj502cb-F-59" value="Login" style="shape=rhombus;perimeter=rhombusPerimeter;whiteSpace=wrap;html=1;align=center;rotation=0;" parent="1" vertex="1">
          <mxGeometry x="455" y="260" width="120" height="60" as="geometry" />
        </mxCell>
        <mxCell id="gfHthL5SHgIZj502cb-F-60" value="" style="endArrow=none;html=1;rounded=0;exitX=1;exitY=0.25;exitDx=0;exitDy=0;entryX=0.2;entryY=0.756;entryDx=0;entryDy=0;entryPerimeter=0;" parent="1" source="gfHthL5SHgIZj502cb-F-29" edge="1">
          <mxGeometry relative="1" as="geometry">
            <mxPoint x="366" y="330" as="sourcePoint" />
            <mxPoint x="484" y="305.36" as="targetPoint" />
          </mxGeometry>
        </mxCell>
        <mxCell id="gfHthL5SHgIZj502cb-F-61" value="N" style="edgeLabel;html=1;align=center;verticalAlign=middle;resizable=0;points=[];" parent="gfHthL5SHgIZj502cb-F-60" vertex="1" connectable="0">
          <mxGeometry x="-0.306" y="2" relative="1" as="geometry">
            <mxPoint x="5" y="-10" as="offset" />
          </mxGeometry>
        </mxCell>
        <mxCell id="gfHthL5SHgIZj502cb-F-62" value="" style="endArrow=none;html=1;rounded=0;" parent="1" edge="1">
          <mxGeometry relative="1" as="geometry">
            <mxPoint x="545" y="275.33" as="sourcePoint" />
            <mxPoint x="625" y="260" as="targetPoint" />
          </mxGeometry>
        </mxCell>
        <mxCell id="gfHthL5SHgIZj502cb-F-64" value="1" style="edgeLabel;html=1;align=center;verticalAlign=middle;resizable=0;points=[];" parent="gfHthL5SHgIZj502cb-F-62" vertex="1" connectable="0">
          <mxGeometry x="-0.0046" y="-1" relative="1" as="geometry">
            <mxPoint y="-11" as="offset" />
          </mxGeometry>
        </mxCell>
        <mxCell id="gfHthL5SHgIZj502cb-F-66" value="Authentication system&lt;span style=&quot;white-space: pre;&quot;&gt;&#x9;&lt;/span&gt;" style="whiteSpace=wrap;html=1;align=center;" parent="1" vertex="1">
          <mxGeometry x="625" y="240" width="100" height="40" as="geometry" />
        </mxCell>
        <mxCell id="gfHthL5SHgIZj502cb-F-67" value="Password" style="ellipse;whiteSpace=wrap;html=1;align=center;" parent="1" vertex="1">
          <mxGeometry x="585" y="160" width="100" height="40" as="geometry" />
        </mxCell>
        <mxCell id="gfHthL5SHgIZj502cb-F-69" value="Loginid" style="ellipse;whiteSpace=wrap;html=1;align=center;fontStyle=4;" parent="1" vertex="1">
          <mxGeometry x="695" y="160" width="100" height="40" as="geometry" />
        </mxCell>
        <mxCell id="gfHthL5SHgIZj502cb-F-70" value="" style="endArrow=none;html=1;rounded=0;exitX=0.5;exitY=1;exitDx=0;exitDy=0;entryX=0.25;entryY=0;entryDx=0;entryDy=0;" parent="1" source="gfHthL5SHgIZj502cb-F-67" target="gfHthL5SHgIZj502cb-F-66" edge="1">
          <mxGeometry relative="1" as="geometry">
            <mxPoint x="325" y="270" as="sourcePoint" />
            <mxPoint x="485" y="270" as="targetPoint" />
          </mxGeometry>
        </mxCell>
        <mxCell id="gfHthL5SHgIZj502cb-F-71" value="" style="endArrow=none;html=1;rounded=0;" parent="1" target="gfHthL5SHgIZj502cb-F-66" edge="1">
          <mxGeometry relative="1" as="geometry">
            <mxPoint x="725" y="200" as="sourcePoint" />
            <mxPoint x="485" y="270" as="targetPoint" />
          </mxGeometry>
        </mxCell>
        <mxCell id="gfHthL5SHgIZj502cb-F-72" value="Maintain" style="shape=rhombus;perimeter=rhombusPerimeter;whiteSpace=wrap;html=1;align=center;" parent="1" vertex="1">
          <mxGeometry x="445" y="430" width="120" height="60" as="geometry" />
        </mxCell>
        <mxCell id="gfHthL5SHgIZj502cb-F-73" value="" style="endArrow=none;html=1;rounded=0;entryX=0;entryY=0;entryDx=0;entryDy=0;exitX=1;exitY=1;exitDx=0;exitDy=0;" parent="1" source="gfHthL5SHgIZj502cb-F-29" target="gfHthL5SHgIZj502cb-F-72" edge="1">
          <mxGeometry relative="1" as="geometry">
            <mxPoint x="325" y="270" as="sourcePoint" />
            <mxPoint x="485" y="270" as="targetPoint" />
          </mxGeometry>
        </mxCell>
        <mxCell id="gfHthL5SHgIZj502cb-F-74" value="1" style="edgeLabel;html=1;align=center;verticalAlign=middle;resizable=0;points=[];" parent="gfHthL5SHgIZj502cb-F-73" vertex="1" connectable="0">
          <mxGeometry x="0.0191" relative="1" as="geometry">
            <mxPoint y="-10" as="offset" />
          </mxGeometry>
        </mxCell>
        <mxCell id="gfHthL5SHgIZj502cb-F-75" value="" style="endArrow=none;html=1;rounded=0;exitX=0.717;exitY=0.9;exitDx=0;exitDy=0;exitPerimeter=0;entryX=0.25;entryY=0;entryDx=0;entryDy=0;" parent="1" target="gfHthL5SHgIZj502cb-F-77" edge="1">
          <mxGeometry relative="1" as="geometry">
            <mxPoint x="524.04" y="481" as="sourcePoint" />
            <mxPoint x="585" y="530" as="targetPoint" />
          </mxGeometry>
        </mxCell>
        <mxCell id="gfHthL5SHgIZj502cb-F-76" value="N" style="edgeLabel;html=1;align=center;verticalAlign=middle;resizable=0;points=[];" parent="gfHthL5SHgIZj502cb-F-75" vertex="1" connectable="0">
          <mxGeometry x="-0.04" y="3" relative="1" as="geometry">
            <mxPoint x="1" y="-6" as="offset" />
          </mxGeometry>
        </mxCell>
        <mxCell id="gfHthL5SHgIZj502cb-F-77" value="Books" style="whiteSpace=wrap;html=1;align=center;" parent="1" vertex="1">
          <mxGeometry x="595" y="559" width="100" height="40" as="geometry" />
        </mxCell>
        <mxCell id="gfHthL5SHgIZj502cb-F-78" value="Title" style="ellipse;whiteSpace=wrap;html=1;align=center;" parent="1" vertex="1">
          <mxGeometry x="715" y="633" width="80" height="37" as="geometry" />
        </mxCell>
        <mxCell id="gfHthL5SHgIZj502cb-F-79" value="Category" style="ellipse;whiteSpace=wrap;html=1;align=center;" parent="1" vertex="1">
          <mxGeometry x="725" y="540" width="80" height="40" as="geometry" />
        </mxCell>
        <mxCell id="gfHthL5SHgIZj502cb-F-80" value="Edition" style="ellipse;whiteSpace=wrap;html=1;align=center;" parent="1" vertex="1">
          <mxGeometry x="725" y="587" width="80" height="40" as="geometry" />
        </mxCell>
        <mxCell id="gfHthL5SHgIZj502cb-F-81" value="Price" style="ellipse;whiteSpace=wrap;html=1;align=center;" parent="1" vertex="1">
          <mxGeometry x="715" y="490" width="80" height="37" as="geometry" />
        </mxCell>
        <mxCell id="gfHthL5SHgIZj502cb-F-82" value="ISBN" style="ellipse;whiteSpace=wrap;html=1;align=center;fontStyle=4;" parent="1" vertex="1">
          <mxGeometry x="641" y="663" width="84" height="37" as="geometry" />
        </mxCell>
        <mxCell id="gfHthL5SHgIZj502cb-F-83" value="Auth" style="ellipse;whiteSpace=wrap;html=1;align=center;" parent="1" vertex="1">
          <mxGeometry x="561" y="640" width="80" height="40" as="geometry" />
        </mxCell>
        <mxCell id="gfHthL5SHgIZj502cb-F-84" style="edgeStyle=orthogonalEdgeStyle;rounded=0;orthogonalLoop=1;jettySize=auto;html=1;exitX=0.5;exitY=1;exitDx=0;exitDy=0;" parent="1" source="gfHthL5SHgIZj502cb-F-78" target="gfHthL5SHgIZj502cb-F-78" edge="1">
          <mxGeometry relative="1" as="geometry" />
        </mxCell>
        <mxCell id="gfHthL5SHgIZj502cb-F-85" value="" style="endArrow=none;html=1;rounded=0;exitX=1;exitY=0.25;exitDx=0;exitDy=0;" parent="1" source="gfHthL5SHgIZj502cb-F-77" edge="1">
          <mxGeometry relative="1" as="geometry">
            <mxPoint x="575" y="509.5" as="sourcePoint" />
            <mxPoint x="725" y="520" as="targetPoint" />
          </mxGeometry>
        </mxCell>
        <mxCell id="gfHthL5SHgIZj502cb-F-87" value="" style="endArrow=none;html=1;rounded=0;exitX=1;exitY=0.5;exitDx=0;exitDy=0;entryX=0;entryY=0.5;entryDx=0;entryDy=0;" parent="1" source="gfHthL5SHgIZj502cb-F-77" target="gfHthL5SHgIZj502cb-F-79" edge="1">
          <mxGeometry relative="1" as="geometry">
            <mxPoint x="705" y="579" as="sourcePoint" />
            <mxPoint x="735" y="530" as="targetPoint" />
          </mxGeometry>
        </mxCell>
        <mxCell id="gfHthL5SHgIZj502cb-F-88" value="" style="endArrow=none;html=1;rounded=0;exitX=1;exitY=0.75;exitDx=0;exitDy=0;entryX=0;entryY=0.5;entryDx=0;entryDy=0;exitPerimeter=0;" parent="1" source="gfHthL5SHgIZj502cb-F-77" target="gfHthL5SHgIZj502cb-F-80" edge="1">
          <mxGeometry relative="1" as="geometry">
            <mxPoint x="705" y="589" as="sourcePoint" />
            <mxPoint x="735" y="570" as="targetPoint" />
          </mxGeometry>
        </mxCell>
        <mxCell id="gfHthL5SHgIZj502cb-F-89" value="" style="endArrow=none;html=1;rounded=0;exitX=0.873;exitY=0.992;exitDx=0;exitDy=0;entryX=0;entryY=0;entryDx=0;entryDy=0;exitPerimeter=0;" parent="1" source="gfHthL5SHgIZj502cb-F-77" target="gfHthL5SHgIZj502cb-F-78" edge="1">
          <mxGeometry relative="1" as="geometry">
            <mxPoint x="715" y="599" as="sourcePoint" />
            <mxPoint x="745" y="580" as="targetPoint" />
          </mxGeometry>
        </mxCell>
        <mxCell id="gfHthL5SHgIZj502cb-F-90" value="" style="endArrow=none;html=1;rounded=0;entryX=0.5;entryY=0;entryDx=0;entryDy=0;" parent="1" target="gfHthL5SHgIZj502cb-F-82" edge="1">
          <mxGeometry relative="1" as="geometry">
            <mxPoint x="665" y="600" as="sourcePoint" />
            <mxPoint x="755" y="590" as="targetPoint" />
          </mxGeometry>
        </mxCell>
        <mxCell id="gfHthL5SHgIZj502cb-F-91" value="" style="endArrow=none;html=1;rounded=0;exitX=0.65;exitY=-0.017;exitDx=0;exitDy=0;entryX=0.42;entryY=0.992;entryDx=0;entryDy=0;entryPerimeter=0;exitPerimeter=0;" parent="1" source="gfHthL5SHgIZj502cb-F-83" target="gfHthL5SHgIZj502cb-F-77" edge="1">
          <mxGeometry relative="1" as="geometry">
            <mxPoint x="735" y="619" as="sourcePoint" />
            <mxPoint x="765" y="600" as="targetPoint" />
          </mxGeometry>
        </mxCell>
        <mxCell id="gfHthL5SHgIZj502cb-F-92" value="&lt;font style=&quot;font-size: 9px;&quot;&gt;Reserve/Return_date&lt;/font&gt;" style="shape=rhombus;perimeter=rhombusPerimeter;whiteSpace=wrap;html=1;align=center;" parent="1" vertex="1">
          <mxGeometry x="419" y="549" width="120" height="60" as="geometry" />
        </mxCell>
        <mxCell id="gfHthL5SHgIZj502cb-F-95" value="" style="endArrow=none;html=1;rounded=0;exitX=1;exitY=0.5;exitDx=0;exitDy=0;" parent="1" source="gfHthL5SHgIZj502cb-F-92" edge="1">
          <mxGeometry relative="1" as="geometry">
            <mxPoint x="545" y="579" as="sourcePoint" />
            <mxPoint x="595" y="579" as="targetPoint" />
          </mxGeometry>
        </mxCell>
        <mxCell id="gfHthL5SHgIZj502cb-F-100" value="N" style="edgeLabel;html=1;align=center;verticalAlign=middle;resizable=0;points=[];" parent="gfHthL5SHgIZj502cb-F-95" vertex="1" connectable="0">
          <mxGeometry x="-0.0714" y="3" relative="1" as="geometry">
            <mxPoint y="-6" as="offset" />
          </mxGeometry>
        </mxCell>
        <mxCell id="gfHthL5SHgIZj502cb-F-98" value="" style="endArrow=none;html=1;rounded=0;entryX=0;entryY=0.5;entryDx=0;entryDy=0;" parent="1" target="gfHthL5SHgIZj502cb-F-92" edge="1">
          <mxGeometry relative="1" as="geometry">
            <mxPoint x="361" y="578.5" as="sourcePoint" />
            <mxPoint x="415" y="580" as="targetPoint" />
          </mxGeometry>
        </mxCell>
        <mxCell id="gfHthL5SHgIZj502cb-F-99" value="1" style="edgeLabel;html=1;align=center;verticalAlign=middle;resizable=0;points=[];" parent="gfHthL5SHgIZj502cb-F-98" vertex="1" connectable="0">
          <mxGeometry x="0.4486" y="-1" relative="1" as="geometry">
            <mxPoint y="-9" as="offset" />
          </mxGeometry>
        </mxCell>
        <mxCell id="gfHthL5SHgIZj502cb-F-101" value="Reserve_date" style="ellipse;whiteSpace=wrap;html=1;align=center;fontStyle=4;" parent="1" vertex="1">
          <mxGeometry x="427" y="493" width="105" height="37" as="geometry" />
        </mxCell>
        <mxCell id="gfHthL5SHgIZj502cb-F-102" value="" style="endArrow=none;html=1;rounded=0;exitX=0.5;exitY=0;exitDx=0;exitDy=0;entryX=0.5;entryY=1;entryDx=0;entryDy=0;" parent="1" source="gfHthL5SHgIZj502cb-F-92" target="gfHthL5SHgIZj502cb-F-101" edge="1">
          <mxGeometry relative="1" as="geometry">
            <mxPoint x="265" y="510" as="sourcePoint" />
            <mxPoint x="465" y="540" as="targetPoint" />
          </mxGeometry>
        </mxCell>
        <mxCell id="gfHthL5SHgIZj502cb-F-103" value="Return_date" style="ellipse;whiteSpace=wrap;html=1;align=center;" parent="1" vertex="1">
          <mxGeometry x="395" y="640" width="90" height="30" as="geometry" />
        </mxCell>
        <mxCell id="gfHthL5SHgIZj502cb-F-104" value="" style="endArrow=none;html=1;rounded=0;exitX=0.5;exitY=1;exitDx=0;exitDy=0;entryX=0.7;entryY=0.018;entryDx=0;entryDy=0;entryPerimeter=0;" parent="1" source="gfHthL5SHgIZj502cb-F-92" target="gfHthL5SHgIZj502cb-F-103" edge="1">
          <mxGeometry relative="1" as="geometry">
            <mxPoint x="265" y="510" as="sourcePoint" />
            <mxPoint x="465" y="630" as="targetPoint" />
          </mxGeometry>
        </mxCell>
        <mxCell id="gfHthL5SHgIZj502cb-F-106" value="Due_date" style="ellipse;whiteSpace=wrap;html=1;align=center;" parent="1" vertex="1">
          <mxGeometry x="485" y="620" width="80" height="30" as="geometry" />
        </mxCell>
        <mxCell id="gfHthL5SHgIZj502cb-F-107" value="" style="endArrow=none;html=1;rounded=0;exitX=0.633;exitY=0.85;exitDx=0;exitDy=0;exitPerimeter=0;" parent="1" source="gfHthL5SHgIZj502cb-F-92" target="gfHthL5SHgIZj502cb-F-106" edge="1">
          <mxGeometry relative="1" as="geometry">
            <mxPoint x="265" y="510" as="sourcePoint" />
            <mxPoint x="425" y="510" as="targetPoint" />
          </mxGeometry>
        </mxCell>
        <mxCell id="gfHthL5SHgIZj502cb-F-108" value="Publishes" style="shape=rhombus;perimeter=rhombusPerimeter;whiteSpace=wrap;html=1;align=center;" parent="1" vertex="1">
          <mxGeometry x="595" y="425" width="120" height="60" as="geometry" />
        </mxCell>
        <mxCell id="gfHthL5SHgIZj502cb-F-109" value="" style="endArrow=none;html=1;rounded=0;exitX=0.5;exitY=0;exitDx=0;exitDy=0;entryX=0.5;entryY=1;entryDx=0;entryDy=0;" parent="1" source="gfHthL5SHgIZj502cb-F-77" target="gfHthL5SHgIZj502cb-F-108" edge="1">
          <mxGeometry relative="1" as="geometry">
            <mxPoint x="277" y="470" as="sourcePoint" />
            <mxPoint x="657" y="490" as="targetPoint" />
          </mxGeometry>
        </mxCell>
        <mxCell id="gfHthL5SHgIZj502cb-F-110" value="N" style="edgeLabel;html=1;align=center;verticalAlign=middle;resizable=0;points=[];" parent="gfHthL5SHgIZj502cb-F-109" vertex="1" connectable="0">
          <mxGeometry x="-0.3245" relative="1" as="geometry">
            <mxPoint x="-8" y="-8" as="offset" />
          </mxGeometry>
        </mxCell>
        <mxCell id="gfHthL5SHgIZj502cb-F-111" value="Publisher" style="whiteSpace=wrap;html=1;align=center;" parent="1" vertex="1">
          <mxGeometry x="612" y="344" width="100" height="40" as="geometry" />
        </mxCell>
        <mxCell id="gfHthL5SHgIZj502cb-F-113" value="&lt;font style=&quot;font-size: 9px;&quot;&gt;YearOfPublicatiopn&lt;/font&gt;" style="ellipse;whiteSpace=wrap;html=1;align=center;" parent="1" vertex="1">
          <mxGeometry x="741" y="360" width="86" height="40" as="geometry" />
        </mxCell>
        <mxCell id="gfHthL5SHgIZj502cb-F-114" value="name" style="ellipse;whiteSpace=wrap;html=1;align=center;" parent="1" vertex="1">
          <mxGeometry x="737" y="412" width="90" height="38" as="geometry" />
        </mxCell>
        <mxCell id="gfHthL5SHgIZj502cb-F-116" value="Publisher_id" style="ellipse;whiteSpace=wrap;html=1;align=center;fontStyle=4;" parent="1" vertex="1">
          <mxGeometry x="737" y="309" width="90" height="40" as="geometry" />
        </mxCell>
        <mxCell id="gfHthL5SHgIZj502cb-F-117" value="" style="endArrow=none;html=1;rounded=0;entryX=0.5;entryY=1;entryDx=0;entryDy=0;exitX=0.5;exitY=0;exitDx=0;exitDy=0;" parent="1" source="gfHthL5SHgIZj502cb-F-108" target="gfHthL5SHgIZj502cb-F-111" edge="1">
          <mxGeometry relative="1" as="geometry">
            <mxPoint x="277" y="470" as="sourcePoint" />
            <mxPoint x="437" y="470" as="targetPoint" />
          </mxGeometry>
        </mxCell>
        <mxCell id="gfHthL5SHgIZj502cb-F-120" value="1" style="edgeLabel;html=1;align=center;verticalAlign=middle;resizable=0;points=[];" parent="gfHthL5SHgIZj502cb-F-117" vertex="1" connectable="0">
          <mxGeometry x="0.2889" y="-2" relative="1" as="geometry">
            <mxPoint x="-10" as="offset" />
          </mxGeometry>
        </mxCell>
        <mxCell id="gfHthL5SHgIZj502cb-F-121" value="" style="endArrow=none;html=1;rounded=0;exitX=0.75;exitY=0;exitDx=0;exitDy=0;entryX=0;entryY=0.5;entryDx=0;entryDy=0;" parent="1" source="gfHthL5SHgIZj502cb-F-111" target="gfHthL5SHgIZj502cb-F-116" edge="1">
          <mxGeometry relative="1" as="geometry">
            <mxPoint x="581" y="330" as="sourcePoint" />
            <mxPoint x="741" y="330" as="targetPoint" />
          </mxGeometry>
        </mxCell>
        <mxCell id="gfHthL5SHgIZj502cb-F-123" value="" style="endArrow=none;html=1;rounded=0;entryX=0;entryY=0.5;entryDx=0;entryDy=0;exitX=1;exitY=0.5;exitDx=0;exitDy=0;" parent="1" source="gfHthL5SHgIZj502cb-F-111" target="gfHthL5SHgIZj502cb-F-113" edge="1">
          <mxGeometry relative="1" as="geometry">
            <mxPoint x="717" y="360" as="sourcePoint" />
            <mxPoint x="747" y="339" as="targetPoint" />
          </mxGeometry>
        </mxCell>
        <mxCell id="gfHthL5SHgIZj502cb-F-124" value="" style="endArrow=none;html=1;rounded=0;exitX=0.75;exitY=1;exitDx=0;exitDy=0;entryX=0;entryY=0;entryDx=0;entryDy=0;" parent="1" source="gfHthL5SHgIZj502cb-F-111" target="gfHthL5SHgIZj502cb-F-114" edge="1">
          <mxGeometry relative="1" as="geometry">
            <mxPoint x="707" y="364" as="sourcePoint" />
            <mxPoint x="757" y="349" as="targetPoint" />
          </mxGeometry>
        </mxCell>
        <mxCell id="gfHthL5SHgIZj502cb-F-125" value="&lt;font style=&quot;font-size: 12px;&quot;&gt;&lt;b style=&quot;&quot;&gt;Experiment No. 1 ER Diagram for Library Management System&lt;/b&gt;&lt;/font&gt;" style="text;html=1;align=center;verticalAlign=middle;resizable=0;points=[];autosize=1;strokeColor=none;fillColor=none;" parent="1" vertex="1">
          <mxGeometry x="255" y="730" width="380" height="30" as="geometry" />
        </mxCell>
      </root>
    </mxGraphModel>
  </diagram>
</mxfile>
